<?xml version="1.0" encoding="utf-8"?>
<!-- Generator: Adobe Illustrator 26.0.1, SVG Export Plug-In . SVG Version: 6.00 Build 0)  -->
<svg version="1.1" xmlns="http://www.w3.org/2000/svg" xmlns:xlink="http://www.w3.org/1999/xlink" x="0px" y="0px"
	 viewBox="0 0 1366 411" style="enable-background:new 0 0 1366 411;" xml:space="preserve">
<style type="text/css">
	.st0{display:none;}
	.st1{fill:none;stroke:#000000;stroke-width:15;stroke-miterlimit:10;}
	.st2{font-family:'BodoniMT';}
	.st3{font-size:252.989px;}
</style>
<g id="Lager_1" class="st0">
	
		<image style="display:inline;overflow:visible;" width="267" height="189" xlink:href="../../../../Downloads/duck.jpg"  transform="matrix(2.9947 0 0 2.9947 -127 -73)">
	</image>
</g>
<g id="Lager_2">
	<path class="st1" d="M160.5,177.5c-22.4,23.3-63.3,72.5-52,119c20.2,82.9,203.8,145.5,296,62c53.4-48.3,67.2-137.4,36-221
		c-14.2,12.2-38.9,30.2-74,42c-37.9,12.8-70.8,12.6-90,11c50.7-41.4,57.7-107.7,29-143c-27-33.1-84.3-37.2-117-18
		c-22.7,13.4-26,33.6-55,46c-20.8,9-41.3,8-55,6c0.7,4.8,6.1,36.6,34,52c19.6,10.8,49,12.8,56,1c6.8-11.4-6.9-36.2-35-59"/>
	<circle cx="209.2" cy="88.2" r="13.8"/>
	<text transform="matrix(0.8176 0 0 1 499.999 175.3174)"><tspan x="0" y="0" class="st2 st3">Duckling</tspan><tspan x="0" y="216.4" class="st2 st3">Books</tspan></text>
</g>
</svg>
